<?xml version="1.0" standalone="no"?>
<!DOCTYPE svg PUBLIC "-//W3C//DTD SVG 20010904//EN"
 "http://www.w3.org/TR/2001/REC-SVG-20010904/DTD/svg10.dtd">
<svg version="1.0" xmlns="http://www.w3.org/2000/svg"
 width="1024.000000pt" height="1024.000000pt" viewBox="0 0 1024.000000 1024.000000"
 preserveAspectRatio="xMidYMid meet">
<metadata>
Created by potrace 1.14, written by Peter Selinger 2001-2017
</metadata>
<g transform="translate(0.000000,1024.000000) scale(0.100000,-0.100000)"
fill="#000000" stroke="none">
<path d="M3300 8220 c-11 -22 -26 -40 -32 -40 -6 0 -9 -3 -5 -6 7 -7 -17 -34
-31 -34 -5 0 -17 -9 -27 -20 -10 -11 -22 -20 -27 -20 -5 0 -17 -7 -26 -16 -15
-15 -15 -17 1 -29 9 -6 13 -15 9 -19 -4 -4 -2 -7 3 -6 24 5 37 -2 79 -45 49
-48 80 -98 68 -110 -12 -11 22 -1 35 11 7 7 14 18 15 25 2 7 10 20 18 29 8 9
24 27 36 41 24 27 64 61 64 54 0 -3 9 3 20 13 23 19 27 12 -47 72 -7 6 -16 10
-20 10 -5 0 -28 29 -52 65 -24 36 -48 65 -52 65 -5 0 -18 -18 -29 -40z"/>
<path d="M2820 7938 c0 -8 -23 -39 -51 -68 -35 -37 -47 -56 -38 -59 8 -2 22
-13 32 -24 9 -11 17 -16 17 -11 0 5 9 -4 19 -20 11 -17 18 -33 16 -36 -11 -17
25 -4 36 13 8 11 22 28 31 38 9 9 13 21 10 25 -4 4 -2 4 5 0 6 -3 14 -2 18 4
4 6 11 8 16 5 5 -4 9 4 9 16 0 12 -3 20 -6 16 -4 -3 -21 9 -39 28 -18 18 -37
30 -41 27 -4 -4 -4 -2 -1 4 4 6 -2 22 -13 34 -14 16 -20 19 -20 8z"/>
<path d="M3822 7925 c-7 -8 -9 -15 -5 -15 4 0 -10 -16 -31 -35 -22 -19 -43
-35 -46 -35 -18 0 -4 -33 19 -45 24 -13 67 -55 56 -55 -3 0 0 -6 7 -14 17 -18
44 -13 40 9 -2 10 1 14 7 10 6 -3 11 -1 11 4 0 12 26 40 59 63 l22 16 -42 31
c-24 17 -40 31 -36 31 3 0 -4 11 -17 25 -27 29 -27 29 -44 10z"/>
<path d="M3289 7644 c-2 -7 -20 -14 -39 -17 -19 -3 -44 -8 -55 -12 -40 -14
-125 -59 -125 -67 0 -4 -5 -8 -11 -8 -21 0 -129 -125 -129 -150 0 -5 -5 -10
-12 -10 -6 0 -9 -3 -6 -6 4 -3 -2 -24 -12 -47 -53 -119 -37 -256 37 -337 13
-14 23 -28 23 -32 0 -5 7 -8 15 -8 9 0 27 -7 40 -16 14 -9 25 -13 25 -9 0 4 6
2 14 -4 24 -20 26 12 4 60 -23 50 -28 75 -28 139 -1 54 3 73 25 125 18 41 111
138 125 130 5 -3 14 0 22 7 7 7 20 15 28 17 28 6 120 8 120 2 0 -4 8 -7 18 -8
33 -3 48 -9 94 -38 26 -17 47 -36 48 -42 0 -7 4 -13 8 -13 5 0 18 -18 31 -40
12 -22 20 -40 16 -40 -3 0 1 -13 10 -30 9 -18 11 -30 5 -30 -7 0 -8 -6 0 -19
7 -14 6 -21 -3 -24 -6 -3 -7 -6 -2 -6 11 -1 7 -81 -4 -81 -4 0 -8 -9 -9 -20
-4 -44 -6 -50 -14 -50 -5 0 -7 -4 -4 -8 9 -14 -97 -119 -151 -151 -29 -17 -53
-28 -53 -25 0 3 -7 -1 -15 -10 -9 -8 -22 -13 -30 -10 -8 4 -15 1 -15 -6 0 -6
-4 -8 -10 -5 -5 3 -16 3 -22 -2 -15 -8 -31 -13 -68 -18 -54 -6 -90 -18 -90
-28 0 -6 -14 -26 -32 -44 l-31 -32 29 -12 c16 -7 31 -13 34 -13 24 -6 129 -26
145 -28 11 -2 21 -9 21 -16 1 -6 3 -15 4 -19 7 -22 4 -79 -5 -85 -7 -6 -7 -10
0 -15 13 -11 14 -103 0 -103 -6 0 -7 -3 0 -8 14 -10 14 -65 1 -74 -7 -5 -8
-11 -1 -15 13 -10 15 -83 3 -83 -5 0 -6 -6 -1 -12 11 -18 12 -68 1 -68 -5 0
-6 -6 -1 -12 11 -18 12 -68 1 -68 -5 0 -6 -6 -1 -12 11 -18 12 -59 1 -80 -5
-10 -4 -19 2 -23 9 -5 9 -18 0 -60 -1 -5 -1 -12 0 -15 8 -18 6 -88 -3 -83 -6
4 -7 1 -2 -8 13 -20 12 -339 0 -339 -7 0 -7 -3 0 -8 13 -9 15 -133 2 -125 -6
4 -7 1 -2 -7 12 -20 14 -240 2 -233 -6 4 -7 1 -1 -8 13 -20 13 -100 1 -92 -6
4 -7 1 -2 -8 5 -7 10 -41 10 -75 l2 -62 -61 0 c-34 -1 -64 -1 -68 -3 -5 -1
-11 -2 -15 -3 -22 -4 -83 -38 -83 -46 0 -6 -7 -10 -17 -10 -9 0 -13 -3 -10 -7
4 -3 0 -14 -9 -24 -8 -9 -16 -31 -18 -48 -1 -17 -5 -33 -8 -37 -7 -6 -5 -12
25 -72 9 -18 12 -30 6 -26 -6 3 -5 -4 3 -15 9 -15 10 -24 2 -29 -18 -12 -49
-112 -34 -112 4 0 6 -11 5 -25 -2 -14 1 -25 6 -25 6 0 8 -4 4 -9 -3 -5 1 -16
9 -24 8 -8 12 -17 9 -21 -4 -3 -1 -6 5 -6 7 0 12 -7 12 -15 0 -8 -4 -15 -9
-15 -5 0 -8 -11 -6 -25 1 -14 -2 -25 -6 -25 -5 0 -4 -11 1 -25 5 -14 9 -29 9
-33 -1 -4 -1 -9 1 -12 1 -3 3 -14 5 -25 16 -85 66 -141 163 -186 37 -17 69
-33 72 -36 9 -8 6 -521 -4 -516 -5 4 -6 0 0 -8 12 -19 12 -399 0 -392 -5 4 -6
0 0 -8 12 -20 13 -239 0 -232 -5 4 -6 1 0 -8 12 -20 12 -539 -1 -532 -5 3 -4
0 3 -8 6 -7 12 -20 12 -29 0 -16 47 -76 58 -74 4 1 12 0 18 -3 30 -11 121 28
109 47 -3 4 1 13 8 19 8 6 12 26 11 46 -2 24 0 33 8 29 7 -5 8 -3 2 7 -13 21
-13 99 0 99 7 0 7 3 1 8 -14 10 -16 94 -3 85 7 -4 8 -1 2 8 -13 22 -14 79 -1
79 8 0 8 3 2 8 -15 10 -15 173 -1 165 6 -4 5 0 -2 9 -9 11 -10 18 -2 23 6 3 7
12 3 18 -12 19 -12 78 0 70 6 -4 7 -1 1 8 -14 23 -15 81 -1 73 9 -6 9 -4 1 7
-12 15 -13 47 -1 65 3 6 3 14 -1 18 -11 12 -11 77 1 69 6 -4 7 -1 1 8 -13 20
-13 140 -1 132 6 -4 7 -1 1 8 -13 20 -14 230 -1 222 6 -4 7 -1 1 8 -14 21 -14
170 0 162 8 -5 8 -3 0 8 -13 15 -13 57 -1 76 4 6 3 14 -2 17 -11 7 -8 76 3 95
6 9 5 12 -1 8 -5 -3 -10 0 -10 8 0 14 -1 14 162 -59 l60 -27 0 -710 c0 -390 3
-709 8 -709 4 0 5 -4 2 -10 -3 -5 0 -10 8 -10 7 0 31 -9 53 -19 21 -10 59 -25
84 -32 25 -7 48 -18 52 -24 4 -5 8 -6 8 -1 0 5 8 2 17 -5 14 -12 16 -12 8 0
-6 11 -5 12 6 5 8 -5 16 -9 19 -10 3 0 14 -4 25 -8 41 -16 71 -25 105 -32 41
-9 48 -11 58 -14 4 -1 15 -1 26 0 12 1 16 -2 11 -12 -6 -10 -5 -10 5 -1 14 13
20 73 8 73 -5 0 -8 5 -8 11 0 5 4 8 8 5 10 -6 9 45 -1 62 -5 6 -4 12 1 12 5 0
9 7 9 15 0 8 -5 15 -11 15 -7 0 -7 3 -1 8 15 11 17 32 3 32 -9 0 -9 3 0 12 7
7 8 17 1 30 -5 10 -6 18 -1 18 4 0 8 36 7 80 0 48 4 80 10 80 5 0 4 4 -3 9
-17 11 -17 21 0 32 7 5 9 9 3 9 -5 0 -10 25 -10 55 0 30 2 55 5 55 3 0 5 43 5
95 0 57 4 95 10 95 6 0 3 5 -5 10 -8 5 -10 10 -5 10 6 0 11 24 11 53 2 65 13
207 20 267 3 25 7 59 8 75 2 17 5 30 6 30 1 0 2 28 3 63 1 34 4 62 7 62 3 0 4
19 4 42 -2 53 5 78 20 78 14 0 15 -28 2 -48 -4 -6 -3 -12 2 -12 5 0 9 -15 9
-32 1 -47 11 -182 27 -360 2 -20 7 -42 11 -49 5 -8 4 -10 -3 -5 -7 4 -12 3
-12 -3 0 -5 4 -12 10 -16 6 -4 6 -15 0 -30 -5 -14 -6 -25 -2 -25 4 0 7 -36 7
-80 0 -44 4 -80 9 -80 5 0 3 -6 -3 -13 -6 -8 -8 -17 -4 -21 4 -3 7 -60 8 -124
1 -65 5 -124 9 -130 4 -7 3 -12 -2 -12 -13 0 -10 -33 3 -42 7 -5 7 -10 0 -15
-12 -9 -13 -33 -2 -50 5 -7 4 -13 0 -13 -5 0 -8 -16 -8 -35 0 -19 3 -35 7 -35
8 0 4 -27 -5 -36 -3 -4 -2 -15 4 -25 5 -11 6 -19 1 -19 -10 0 -9 -30 2 -48 4
-7 2 -12 -4 -12 -6 0 -8 -5 -4 -12 11 -18 12 -48 2 -48 -5 0 -4 -9 2 -20 6
-11 7 -20 2 -20 -5 0 -9 -7 -9 -15 0 -8 4 -15 9 -15 5 0 7 -4 3 -9 -11 -18 66
-44 128 -43 9 1 17 -2 17 -6 0 -4 21 -8 48 -9 58 -2 153 -12 169 -18 6 -2 16
2 21 8 13 17 22 57 12 57 -5 0 -5 13 0 29 6 21 5 31 -3 34 -9 3 -8 8 2 20 9
12 10 17 2 17 -9 0 -9 5 0 21 9 17 8 20 -3 13 -11 -6 -11 -5 1 9 7 9 9 17 4
17 -10 0 -9 70 1 95 2 7 0 18 -4 26 -5 7 -5 18 1 25 7 8 7 14 0 18 -6 4 -7 15
-1 30 4 12 4 29 0 36 -5 8 -4 22 1 32 6 12 6 18 0 18 -6 0 -6 11 -1 30 5 18 5
32 -1 36 -6 4 -6 11 2 20 8 10 8 14 0 14 -7 0 -8 8 -2 23 5 13 6 30 1 37 -4 7
-4 25 0 40 4 15 4 33 0 40 -4 7 -4 25 0 41 5 15 6 30 3 33 -9 8 -9 76 0 76 4
0 5 6 1 12 -10 16 -13 48 -4 48 8 0 6 37 -3 46 -4 4 -2 13 4 21 6 7 7 13 2 13
-5 0 -10 7 -10 15 0 8 3 15 7 15 9 0 7 52 -3 67 -4 6 -4 14 1 17 5 3 8 26 7
51 0 25 3 45 9 45 7 0 6 4 0 10 -6 6 -8 31 -5 58 3 26 6 82 6 124 0 43 2 78 5
78 3 0 7 44 9 98 2 53 4 114 5 134 0 21 3 38 6 38 3 0 6 21 7 48 3 62 11 177
13 177 2 0 7 46 12 100 2 22 8 43 13 47 6 5 5 8 -2 8 -7 0 -10 7 -6 16 3 9 7
30 7 48 1 17 5 30 9 29 4 -2 10 -3 13 -3 4 0 1 -7 -6 -15 -7 -8 -8 -15 -3 -15
6 0 10 -17 11 -37 1 -53 10 -188 12 -188 1 0 4 -27 6 -60 8 -154 13 -220 14
-220 7 0 5 -47 -2 -51 -4 -3 -5 -10 -2 -16 4 -6 7 -31 8 -57 1 -25 5 -52 9
-58 5 -8 4 -13 -3 -13 -10 0 -6 -53 6 -72 3 -4 1 -8 -4 -8 -5 0 -8 -10 -6 -22
1 -13 3 -23 4 -23 1 0 2 -38 3 -85 1 -47 5 -90 9 -96 4 -6 4 -14 1 -18 -10
-10 -10 -136 0 -136 4 0 5 -6 0 -12 -10 -17 -10 -39 -1 -60 5 -9 4 -20 -2 -23
-6 -4 -7 -13 -1 -23 6 -11 6 -24 -1 -35 -6 -12 -6 -22 1 -31 6 -7 7 -16 3 -20
-10 -11 -9 -30 3 -39 7 -6 6 -10 -2 -14 -9 -3 -10 -10 -3 -24 6 -10 7 -19 2
-19 -10 0 -9 -30 2 -48 4 -6 3 -12 -1 -12 -5 0 -9 -9 -9 -20 0 -11 4 -20 8
-20 4 0 8 -5 8 -11 0 -5 -3 -8 -7 -6 -5 3 -8 -15 -8 -39 0 -24 3 -44 8 -44 4
0 6 -4 2 -9 -9 -16 -13 -71 -4 -71 5 0 6 -6 4 -12 -10 -26 -12 -78 -3 -78 5 0
4 -9 -2 -20 -8 -14 -8 -20 0 -20 6 0 8 -5 4 -12 -10 -16 -12 -78 -2 -78 4 0 8
-5 8 -11 0 -5 -4 -8 -8 -5 -10 6 -9 -51 1 -60 3 -4 2 -15 -4 -25 -7 -13 -6
-19 1 -19 6 0 8 -5 4 -12 -11 -17 -12 -48 -3 -48 5 0 4 -11 -1 -24 -5 -13 -6
-26 -4 -29 3 -3 7 -13 8 -24 3 -17 17 -18 247 -17 134 1 253 5 263 9 14 6 17
5 11 -4 -6 -10 -3 -11 14 -1 12 6 29 10 39 9 9 -2 27 1 39 5 19 6 22 13 19 52
-2 27 1 44 8 44 6 0 5 4 -2 9 -15 9 -15 20 0 39 8 8 7 12 -3 12 -11 0 -11 2 1
10 8 5 10 10 5 10 -13 0 -13 73 0 82 6 5 5 8 -2 8 -9 0 -10 7 -4 23 5 13 6 29
1 36 -4 7 -4 28 0 46 4 18 4 39 -1 46 -4 7 -3 19 3 26 6 7 6 13 1 13 -5 0 -9
9 -9 20 0 11 4 20 9 20 5 0 4 7 -3 15 -10 12 -10 18 0 30 10 12 10 15 -1 15
-11 0 -11 2 1 10 8 5 10 10 4 10 -11 0 -11 51 0 69 4 5 2 12 -3 16 -6 3 -7 16
-3 28 9 27 9 48 -1 65 -5 7 -3 12 5 12 10 0 10 2 0 9 -15 9 -15 20 -1 38 7 7
6 14 -2 18 -8 6 -7 10 2 16 9 6 10 9 2 9 -12 0 -12 24 0 36 4 4 2 13 -3 20
-12 14 -10 36 5 47 6 4 5 10 -3 16 -15 9 -15 20 -1 38 7 7 6 13 0 17 -13 8
-10 46 4 46 5 0 4 4 -3 9 -8 4 -14 12 -14 16 0 4 6 12 14 16 9 6 10 11 3 17
-14 9 -13 75 0 84 6 5 5 8 -4 8 -11 0 -11 3 -1 15 7 8 8 15 3 15 -8 0 -10 53
-3 70 1 3 1 10 0 15 -8 38 -8 45 1 45 6 0 7 5 3 11 -11 18 -11 53 1 61 6 5 6
8 -2 8 -8 0 -10 7 -5 23 9 27 9 48 -1 65 -5 7 -3 12 5 12 8 0 9 3 3 8 -13 9
-14 82 -2 82 5 0 4 6 -2 14 -7 8 -8 17 -4 19 7 5 9 62 3 62 -2 0 -4 10 -5 23
-1 12 2 22 6 22 5 0 4 11 -1 25 -7 18 -6 25 3 25 8 0 8 3 2 8 -13 8 -13 81 -1
101 5 7 5 16 -1 20 -11 7 -11 51 0 69 5 6 4 12 0 12 -5 0 -9 11 -9 25 0 14 3
25 6 25 4 0 7 7 7 15 0 8 -3 15 -7 15 -8 0 -7 67 1 75 7 6 69 -70 69 -84 0 -6
4 -11 9 -11 5 0 12 -8 15 -17 3 -10 17 -30 31 -45 14 -16 23 -28 20 -28 -3 0
-1 -6 5 -12 49 -59 60 -76 61 -98 0 -14 0 -441 0 -950 0 -679 3 -926 12 -932
6 -3 18 -3 26 2 9 4 32 10 51 13 69 10 145 30 159 41 12 9 13 8 6 -3 -6 -11
-5 -12 6 -5 8 5 17 9 22 10 4 1 9 3 12 4 3 1 8 3 13 4 4 1 34 10 67 20 33 10
66 19 73 19 7 0 15 12 19 26 10 40 10 394 -1 409 -5 7 -5 12 1 12 10 0 10 91
0 107 -3 5 -2 15 3 23 4 7 4 23 0 36 -5 12 -6 25 -3 28 3 3 8 124 10 268 4
301 6 349 15 363 4 6 3 17 -1 24 -5 7 -5 28 -1 47 5 23 4 34 -4 34 -7 0 -7 3
-1 8 6 4 11 34 12 67 4 149 6 174 17 168 6 -4 6 0 -1 8 -9 11 -10 25 -3 47 6
22 5 32 -2 32 -7 0 -7 4 -1 13 5 6 9 36 9 64 -1 29 2 53 5 53 4 0 6 23 5 51
-2 27 0 52 4 54 3 2 6 31 6 64 -1 34 2 61 6 61 4 0 4 7 1 17 -4 10 -2 14 4 10
10 -6 13 -23 14 -100 1 -20 5 -40 10 -43 5 -3 5 -13 -1 -23 -5 -10 -6 -21 -3
-25 7 -6 10 -36 17 -156 3 -41 6 -75 7 -75 6 0 28 -374 33 -581 1 -55 6 -106
10 -112 4 -7 4 -12 -1 -12 -4 0 -8 -16 -8 -35 0 -19 4 -35 8 -35 4 0 3 -8 -2
-18 -5 -10 -6 -24 -1 -32 5 -8 5 -21 -1 -31 -6 -11 -5 -20 1 -24 6 -4 6 -15 0
-30 -6 -16 -6 -25 0 -25 6 0 6 -9 0 -24 -5 -13 -6 -27 -3 -30 10 -9 10 -56 0
-56 -4 0 -4 -8 0 -17 10 -22 10 -44 0 -60 -4 -6 -4 -14 0 -16 10 -6 9 -89 0
-104 -4 -7 -4 -14 1 -17 8 -5 7 -75 -2 -83 -3 -3 -1 -15 4 -27 4 -13 4 -29 -1
-39 -6 -9 -6 -17 -2 -17 10 0 10 -41 0 -57 -4 -7 -4 -14 0 -16 10 -6 9 -59 -1
-75 -4 -7 -6 -12 -4 -13 26 -6 39 -6 44 2 3 5 10 7 15 4 5 -4 9 -1 9 6 0 7 3
10 6 6 4 -3 21 1 38 10 17 10 34 16 39 15 4 -1 7 3 7 9 0 6 7 9 15 5 8 -3 15
-2 15 3 0 4 19 16 43 27 23 10 44 21 47 24 3 3 30 19 60 34 30 15 59 32 65 37
6 6 10 231 12 592 3 646 5 757 16 774 4 6 2 15 -4 19 -8 4 -7 9 2 15 11 7 11
9 1 9 -7 0 -10 5 -6 11 4 6 8 51 9 98 0 48 5 92 9 99 4 7 3 12 -2 12 -6 0 -7
14 -2 35 5 24 4 35 -4 35 -7 0 -7 3 -1 8 6 4 10 32 9 62 0 30 4 63 9 74 7 13
6 16 -3 11 -9 -6 -9 -3 -2 12 6 11 7 25 2 33 -5 8 -5 21 -1 29 4 9 7 35 7 59
-1 23 1 42 4 42 3 0 6 30 8 68 1 37 4 90 6 117 2 28 4 59 5 69 1 11 3 17 6 14
5 -5 12 -57 20 -153 2 -22 4 -42 5 -45 1 -3 2 -18 2 -35 0 -16 3 -45 8 -62 5
-22 5 -33 -2 -33 -6 0 -7 -5 -2 -12 5 -7 9 -25 8 -40 0 -16 3 -28 8 -28 5 0 4
-9 -2 -20 -6 -11 -7 -20 -3 -20 4 0 8 -30 8 -68 0 -37 3 -72 8 -79 4 -6 3 -14
-3 -18 -6 -3 -7 -12 -3 -18 4 -6 8 -38 9 -71 2 -33 6 -71 9 -84 3 -13 2 -21
-2 -19 -5 3 -9 -3 -9 -13 0 -10 3 -17 6 -15 4 2 7 -28 8 -66 1 -39 4 -75 8
-80 3 -5 -1 -9 -8 -9 -8 0 -9 -3 -3 -8 13 -9 15 -52 3 -52 -5 0 -6 -5 -2 -12
4 -6 8 -49 10 -94 1 -45 5 -87 9 -93 3 -6 1 -11 -5 -11 -7 0 -8 -7 -3 -17 10
-22 10 -54 0 -71 -5 -6 -5 -12 0 -12 4 0 8 -186 8 -414 0 -380 1 -413 16 -405
9 4 19 5 23 2 3 -3 6 -2 6 4 0 6 18 22 40 37 47 31 71 50 111 88 16 15 29 26
29 24 0 -4 120 106 187 171 23 23 43 44 43 46 0 3 27 31 59 65 33 33 57 62 55
65 -3 3 4 8 15 12 12 3 19 10 16 14 -2 5 7 17 20 27 14 10 25 22 25 27 0 4 10
18 23 31 36 37 67 76 61 76 -3 0 1 7 10 15 8 8 13 25 11 38 -2 12 -6 45 -9 72
-7 61 -14 119 -22 165 -4 19 -7 46 -8 60 -1 14 -4 30 -7 35 -3 6 -5 25 -5 43
1 17 -1 32 -4 32 -3 0 -7 19 -8 43 -4 55 -9 102 -12 102 -2 0 -3 18 -4 40 -1
22 -4 45 -8 50 -3 6 -5 22 -4 38 1 15 -1 27 -5 27 -3 0 -7 15 -7 33 0 17 -1
34 -2 37 -1 3 -3 19 -6 35 -2 17 -6 39 -8 50 -3 11 -5 35 -5 53 -1 24 -5 31
-13 26 -10 -5 -10 -4 -2 5 8 9 9 23 3 45 -5 18 -11 54 -13 81 -3 28 -6 50 -7
50 -1 0 -3 9 -4 20 -1 11 -8 47 -16 80 -7 33 -13 62 -14 65 0 3 -3 10 -6 15
-4 6 -10 25 -14 43 -3 17 -11 32 -15 32 -5 0 -7 7 -4 15 4 8 1 15 -7 15 -7 0
-10 3 -6 6 3 4 0 19 -8 34 -8 15 -11 31 -7 35 4 5 1 5 -5 1 -8 -4 -13 -1 -13
8 0 9 -4 16 -10 16 -5 0 -10 7 -10 15 0 9 -4 21 -10 28 -53 65 -88 116 -82
123 4 4 1 4 -5 0 -8 -5 -13 -1 -13 10 0 10 -3 15 -6 12 -6 -7 -64 51 -64 64 0
5 -4 7 -8 4 -5 -3 -15 3 -24 12 -20 22 -51 47 -61 49 -5 1 -16 10 -25 20 -9
10 -30 25 -46 33 -56 29 -66 35 -66 42 0 5 -9 8 -20 8 -11 0 -20 5 -20 10 0 6
-9 10 -20 10 -11 0 -20 5 -20 12 0 6 -3 8 -6 5 -4 -3 -16 -1 -28 5 -11 7 -23
13 -26 13 -3 1 -18 8 -35 15 -16 7 -38 12 -47 12 -10 0 -18 3 -18 9 0 5 -13 9
-29 9 -17 0 -33 5 -36 11 -4 5 -12 8 -18 6 -7 -2 -23 1 -37 8 -14 6 -32 11
-40 10 -8 0 -21 6 -28 15 -9 10 -11 10 -6 1 4 -9 2 -12 -7 -9 -18 7 -13 50 6
61 9 4 13 12 10 18 -4 5 -1 9 6 9 7 0 10 3 6 6 -3 3 5 25 19 47 13 23 32 58
42 77 9 19 20 37 25 38 11 5 9 32 -3 32 -5 0 -10 7 -10 15 0 8 -4 15 -10 15
-5 0 -10 4 -10 10 0 9 -22 35 -92 112 -31 32 -37 53 -13 44 8 -3 15 -1 15 5 0
6 5 7 12 3 21 -13 259 -11 285 3 13 7 21 8 18 3 -4 -6 -1 -10 4 -10 6 0 11 4
11 10 0 5 3 9 8 8 13 -3 58 20 71 36 19 23 23 87 6 106 -7 8 -13 18 -12 21 1
4 -10 21 -25 39 -15 18 -25 38 -21 43 4 6 1 7 -6 3 -8 -5 -14 0 -18 13 -3 11
-14 23 -24 26 -11 4 -17 11 -14 16 4 5 -2 9 -11 9 -10 0 -15 3 -12 6 7 6 -39
54 -52 54 -6 0 -10 7 -10 15 0 8 -4 15 -9 15 -4 0 -22 12 -38 28 -52 46 -87
76 -122 102 -18 14 -39 31 -47 38 -8 7 -14 11 -14 7 0 -3 -15 8 -32 24 -18 17
-39 31 -45 31 -7 0 -13 5 -13 11 0 5 -4 8 -8 5 -12 -7 -31 31 -38 74 -7 49
-16 139 -17 178 -1 17 -4 32 -7 32 -3 0 -5 19 -4 43 2 79 2 79 23 68 10 -6 21
-7 25 -4 3 3 6 2 6 -3 0 -5 8 -10 18 -11 9 -1 31 -7 47 -14 17 -7 33 -13 38
-14 4 -2 10 -4 15 -5 4 -2 12 -4 17 -4 6 -1 20 -7 33 -14 12 -7 22 -10 22 -8
0 3 19 -2 43 -10 23 -9 50 -17 60 -20 9 -2 27 -7 40 -10 12 -3 31 -7 43 -8 11
-1 24 -5 30 -7 5 -3 28 -5 52 -5 23 1 42 -3 42 -8 0 -5 7 -3 15 4 8 7 15 10
15 7 0 -13 66 18 88 40 12 13 22 21 22 17 0 -4 10 6 22 22 12 16 27 32 33 36
5 4 7 8 3 8 -5 0 2 11 13 24 23 26 40 54 62 99 7 15 16 25 19 22 2 -3 5 1 5 8
0 6 17 48 37 91 21 44 39 87 41 97 2 10 9 28 16 41 7 13 12 24 11 26 -1 1 -2
3 -1 5 0 1 2 9 4 17 2 8 6 29 10 45 13 56 7 115 -13 115 -5 0 -19 -20 -32 -45
-13 -25 -28 -45 -33 -45 -6 0 -8 -3 -4 -6 3 -4 1 -12 -6 -20 -30 -34 -37 -44
-30 -44 4 0 4 -4 -2 -8 -5 -4 -30 -32 -54 -62 -62 -77 -164 -179 -178 -180 -7
0 -13 -6 -13 -12 0 -7 -11 -1 -24 12 -13 14 -21 28 -19 33 2 4 0 7 -5 7 -5 0
-42 40 -83 90 -41 49 -80 89 -86 90 -7 0 -13 7 -13 17 0 9 -2 14 -5 11 -3 -3
-21 9 -39 27 -18 18 -64 54 -102 81 -38 27 -71 52 -72 56 -2 5 -7 6 -12 3 -4
-3 -13 2 -20 10 -7 8 -18 15 -24 15 -7 0 -18 6 -24 13 -7 6 -16 12 -20 13 -4
0 -25 8 -47 18 -22 9 -41 17 -42 17 -1 0 -15 6 -30 14 -14 8 -30 12 -35 9 -4
-3 -8 0 -8 5 0 6 -9 11 -21 11 -11 0 -30 5 -41 11 -16 9 -19 8 -12 -3 6 -10 4
-10 -9 1 -10 8 -46 15 -81 17 -53 2 -68 -1 -86 -18 -30 -28 -51 -82 -53 -135
-1 -13 -4 -23 -7 -23 -3 0 -6 -10 -7 -22 0 -13 -3 -36 -6 -52 -8 -38 -16 -93
-34 -236 -4 -30 -7 -81 -7 -112 -1 -32 -3 -58 -6 -58 -3 0 -5 -18 -3 -40 1
-23 -2 -38 -7 -35 -6 4 -18 8 -27 10 -10 2 -31 9 -48 16 -34 14 -51 19 -80 24
-11 2 -20 4 -20 5 0 1 -13 4 -30 6 -16 3 -33 11 -37 17 -6 9 -8 8 -8 -2 0 -10
-3 -11 -14 -2 -8 7 -28 13 -45 13 -17 1 -31 4 -31 7 0 3 -21 7 -48 8 -26 2
-60 4 -77 6 -32 4 -75 -10 -75 -25 0 -5 -5 -6 -12 -2 -6 4 -8 3 -5 -3 3 -5
-12 -26 -34 -47 -21 -21 -39 -43 -39 -48 0 -5 -4 -6 -10 -3 -5 3 -10 -1 -10
-10 0 -9 -4 -13 -10 -10 -5 3 -10 2 -10 -3 0 -4 -14 -23 -31 -40 -17 -18 -30
-33 -28 -33 2 -1 18 -3 34 -5 17 -2 48 -6 70 -9 22 -2 60 -7 85 -9 25 -3 68
-8 95 -12 28 -3 60 -7 73 -7 12 -1 22 -5 22 -9 0 -5 9 -4 20 2 11 6 20 7 20 2
0 -4 8 -8 18 -8 29 -1 119 -14 139 -20 24 -8 67 -28 73 -34 3 -3 18 -12 33
-20 16 -8 39 -24 52 -36 13 -12 26 -19 29 -16 3 3 6 0 6 -6 0 -7 7 -12 15 -12
9 0 18 -7 21 -15 4 -8 10 -12 15 -10 5 3 16 -3 26 -15 10 -11 23 -20 30 -20 7
0 13 -4 13 -10 0 -5 4 -10 10 -10 8 0 146 -95 160 -110 3 -3 21 -17 40 -30 41
-28 51 -41 43 -53 -3 -5 -9 -4 -13 2 -3 7 -19 14 -35 17 -15 3 -36 9 -47 15
-10 5 -23 7 -28 4 -6 -3 -10 -1 -10 5 0 6 -4 8 -10 5 -5 -3 -10 -1 -10 4 0 6
-3 10 -7 9 -5 -1 -21 4 -38 11 -16 7 -38 13 -47 14 -10 1 -18 5 -18 9 0 4 -7
5 -15 2 -8 -4 -15 -2 -15 4 0 5 -17 13 -37 17 -21 4 -54 14 -73 22 -19 9 -42
17 -50 18 -8 2 -29 8 -47 13 -17 6 -34 8 -37 4 -3 -3 -6 1 -6 8 0 7 -3 11 -6
8 -3 -3 -21 -2 -41 4 -19 5 -43 11 -52 13 -9 2 -41 11 -71 20 -50 15 -81 21
-118 24 -7 1 -11 4 -9 9 3 4 -7 8 -21 8 -15 1 -45 4 -67 8 -22 3 -56 8 -75 11
-19 3 -46 7 -60 11 -14 3 -36 7 -50 9 -14 2 -43 6 -65 9 -22 4 -94 9 -160 12
-66 3 -128 6 -137 8 -10 2 -18 1 -18 -2 0 -4 -24 -8 -53 -9 -80 -3 -127 -13
-187 -41 -30 -14 -58 -24 -62 -24 -5 1 -8 -5 -8 -13 0 -8 -4 -15 -10 -15 -5 0
-10 -5 -10 -11 0 -7 -8 -18 -17 -26 -11 -8 -12 -11 -3 -7 12 6 13 5 4 -7 -11
-15 -11 -33 0 -95 8 -39 44 -116 59 -122 4 -2 7 -8 7 -13 0 -14 134 -159 146
-159 3 0 19 -13 37 -30 18 -16 37 -30 44 -30 6 0 13 -3 15 -8 5 -11 125 -84
193 -117 79 -39 91 -50 73 -73 -7 -9 -16 -19 -20 -22 -3 -3 -8 -12 -10 -20 -2
-8 -11 -23 -21 -35 -10 -11 -28 -38 -39 -60 -11 -22 -23 -42 -27 -45 -9 -8
-12 -30 -4 -30 5 0 9 -12 10 -27 0 -15 6 -29 12 -31 6 -2 11 -10 11 -18 0 -8
9 -24 20 -36 11 -12 20 -28 20 -36 0 -8 6 -20 14 -26 7 -6 25 -32 40 -57 l26
-46 -48 -21 c-58 -26 -106 -44 -111 -42 -2 1 -8 -5 -13 -14 -5 -9 -14 -16 -19
-16 -6 0 -30 -13 -53 -30 -24 -16 -47 -26 -51 -22 -5 4 -6 2 -2 -3 3 -6 -8
-20 -24 -30 -16 -11 -29 -23 -29 -27 0 -5 -4 -8 -10 -8 -14 0 -150 -137 -143
-144 4 -3 1 -6 -6 -6 -7 0 -9 -4 -6 -10 3 -5 -1 -10 -9 -10 -8 0 -17 -8 -21
-19 -3 -10 -17 -31 -30 -47 -21 -24 -69 -115 -105 -199 -12 -27 -34 -108 -32
-117 1 -5 -2 -8 -8 -8 -5 0 -7 -7 -4 -15 4 -8 1 -22 -5 -29 -8 -10 -9 -16 -1
-21 6 -3 7 -12 3 -18 -4 -7 -8 -15 -9 -19 -1 -5 -3 -9 -4 -10 -1 -2 -4 -16 -6
-33 -2 -16 -6 -43 -8 -60 -9 -57 -18 -140 -19 -167 0 -16 -3 -28 -7 -28 -4 0
-5 -13 -2 -29 5 -39 -13 -43 -73 -16 -58 27 -85 37 -104 41 -8 1 -17 6 -20 11
-3 4 -10 9 -16 10 -25 5 -81 29 -86 37 -4 5 -12 5 -18 2 -6 -4 -11 -3 -11 3 0
6 -7 7 -17 4 -11 -4 -14 -3 -9 5 5 8 -1 12 -16 13 -13 0 -36 8 -53 18 -27 16
-30 23 -32 72 -2 51 -5 83 -19 187 -4 23 -11 42 -16 42 -6 0 -8 9 -5 19 3 12
-1 22 -10 25 -8 3 -12 10 -9 15 4 5 -1 16 -9 24 -8 9 -15 20 -15 26 0 6 -4 11
-10 11 -5 0 -10 6 -10 14 0 8 -5 18 -12 22 -7 5 -8 3 -3 -7 5 -8 -4 -2 -18 14
-40 41 -78 55 -165 58 -29 1 -55 6 -58 11 -3 4 1 8 8 8 8 0 9 3 2 8 -15 10
-16 324 0 315 8 -5 8 -3 0 8 -15 19 -15 230 0 248 7 10 7 13 0 8 -15 -9 -15
725 0 735 8 6 8 8 0 8 -16 0 -15 222 0 232 8 6 8 8 0 8 -13 0 -13 188 0 209 6
9 5 12 -2 8 -6 -4 -8 0 -5 11 2 10 10 19 16 19 21 0 101 42 132 69 81 69 104
94 143 150 22 34 38 64 35 68 -4 3 -1 6 5 6 7 0 12 7 12 15 0 9 7 29 15 45 8
15 18 52 21 82 3 29 10 58 15 64 5 6 6 14 2 18 -4 4 -8 19 -9 34 -4 57 -32
162 -44 162 -4 0 -8 6 -7 13 1 18 -26 77 -35 77 -4 0 -8 6 -8 13 0 7 -9 19
-20 27 -11 8 -20 20 -20 28 0 7 -4 10 -10 7 -5 -3 -10 0 -10 7 0 7 -22 29 -50
48 -27 19 -49 39 -50 43 0 5 -4 5 -10 2 -5 -3 -10 -1 -10 4 0 6 -3 10 -7 9 -5
-1 -30 8 -56 20 -27 12 -55 22 -63 22 -8 0 -14 3 -14 8 0 4 -17 6 -37 6 -21
-1 -45 2 -52 6 -8 4 -25 4 -37 0 -15 -6 -24 -5 -27 3 -3 9 -5 9 -8 1z m2026
-1308 c11 -3 35 -9 53 -15 17 -5 32 -7 32 -5 0 3 6 2 13 -3 6 -4 17 -8 22 -9
6 -1 24 -5 40 -9 17 -3 36 -7 43 -7 6 -1 12 -6 12 -11 0 -6 3 -7 6 -4 10 10
244 -115 252 -135 2 -4 10 -8 18 -8 8 0 14 -5 14 -11 0 -5 4 -8 9 -5 4 3 19
-6 31 -19 13 -14 29 -25 37 -25 7 0 13 -4 13 -10 0 -5 7 -10 16 -10 10 0 14
-6 10 -15 -3 -8 -2 -15 2 -15 5 0 7 -35 5 -77 -3 -68 -6 -80 -30 -105 -15 -15
-35 -28 -44 -28 -10 0 -20 -4 -23 -9 -4 -5 -17 -8 -31 -6 -14 1 -25 -1 -25 -5
0 -5 -39 -6 -47 0 -2 1 -23 2 -47 3 -25 0 -43 4 -41 8 3 4 -6 9 -18 13 -27 6
-79 51 -70 60 4 3 1 6 -6 6 -7 0 -9 5 -6 10 3 6 0 10 -7 11 -10 0 -10 2 -1 6
9 3 10 10 3 24 -8 14 -7 19 2 19 9 0 9 3 -2 10 -11 7 -11 10 -2 10 8 0 10 5 6
12 -4 7 -8 24 -8 38 0 14 4 31 8 38 4 7 4 12 -1 12 -4 0 -8 27 -7 60 1 57 -4
66 -31 60 -5 -1 -14 -3 -20 -4 -41 -9 -87 -39 -97 -63 -15 -35 -19 -242 -6
-267 8 -14 7 -17 -4 -10 -11 6 -11 5 1 -9 7 -9 10 -17 7 -17 -7 0 3 -14 46
-62 15 -16 28 -34 30 -38 2 -5 10 -10 18 -12 8 -2 22 -11 31 -20 9 -10 23 -18
31 -18 8 0 18 -4 24 -9 5 -6 23 -13 39 -16 17 -3 44 -9 60 -12 36 -8 139 -7
180 2 17 3 36 6 43 7 6 1 12 5 12 10 0 4 3 7 8 6 15 -5 102 44 95 54 -3 6 -2
8 4 5 11 -7 63 46 63 63 0 5 4 10 9 10 14 0 22 67 23 169 0 50 4 94 9 97 9 5
97 -79 139 -135 14 -18 31 -39 38 -46 6 -8 12 -18 12 -24 0 -6 5 -11 10 -11 6
0 10 -7 10 -15 0 -8 5 -15 10 -15 6 0 10 -7 10 -15 0 -8 5 -15 10 -15 6 0 10
-6 10 -14 0 -7 7 -19 15 -26 9 -7 13 -15 10 -18 -3 -3 2 -14 12 -24 9 -10 12
-18 7 -18 -5 0 -3 -4 4 -9 7 -4 14 -18 15 -29 1 -12 5 -22 10 -22 5 0 7 -7 3
-15 -3 -8 -2 -15 2 -15 7 0 10 -12 12 -52 1 -7 -1 -20 -3 -28 -2 -8 -7 -36
-11 -62 -5 -26 -12 -45 -17 -42 -5 3 -9 -6 -9 -20 0 -14 -4 -27 -9 -30 -9 -6
-47 44 -43 57 1 4 -3 7 -8 7 -6 0 -10 7 -10 15 0 8 -4 15 -10 15 -5 0 -10 7
-10 15 0 7 -6 18 -14 22 -8 4 -15 10 -15 13 0 17 -14 39 -22 34 -5 -3 -9 2 -9
11 0 9 -13 29 -29 44 -16 16 -27 32 -24 35 4 3 1 6 -6 6 -7 0 -10 3 -8 8 3 4
-1 13 -9 20 -8 7 -14 9 -14 5 0 -4 -5 -1 -10 7 -5 8 -10 10 -10 4 0 -6 3 -14
7 -18 4 -3 8 -14 9 -24 1 -9 6 -35 11 -57 5 -22 9 -50 8 -62 -1 -13 1 -23 5
-23 8 0 12 -59 13 -185 0 -122 -5 -177 -17 -194 -9 -12 -8 -13 4 -6 11 7 10 2
-4 -19 -10 -16 -13 -25 -7 -22 12 8 15 -6 4 -18 -4 -3 -8 -13 -10 -21 -6 -31
-10 -42 -32 -92 -23 -52 -41 -68 -41 -38 0 8 -4 15 -10 15 -5 0 -10 8 -10 18
0 10 -4 22 -9 28 -17 17 -51 84 -51 99 0 8 -5 15 -11 15 -5 0 -7 5 -4 10 3 6
-1 10 -9 10 -9 0 -16 7 -16 15 0 8 -9 20 -20 27 -11 7 -20 16 -20 20 0 10 -65
73 -80 76 -11 3 -11 0 -1 -12 7 -8 10 -20 6 -26 -3 -5 -1 -10 6 -10 8 0 8 -4
-1 -15 -10 -12 -10 -16 1 -20 10 -4 14 -22 14 -58 -1 -28 3 -60 7 -69 5 -10 4
-20 -2 -23 -8 -5 -8 -11 0 -20 8 -10 8 -20 1 -33 -7 -13 -7 -22 1 -30 8 -8 8
-12 1 -12 -6 0 -9 -13 -8 -30 1 -16 -3 -40 -9 -52 -6 -13 -11 -35 -10 -50 1
-16 -2 -28 -6 -28 -4 0 -7 -6 -7 -13 0 -21 -45 -107 -56 -107 -6 0 -7 -3 -4
-6 6 -6 -8 -27 -55 -83 -9 -11 -18 -6 -49 29 -21 24 -36 47 -33 52 3 4 0 8 -6
8 -6 0 -15 11 -20 25 -5 14 -15 25 -21 25 -7 0 -10 3 -6 6 3 4 -4 27 -17 53
-23 46 -41 99 -38 114 1 4 -2 7 -7 7 -5 0 -7 9 -4 20 3 11 1 20 -4 20 -5 0
-10 12 -10 28 0 15 -4 45 -8 67 -4 22 -8 75 -9 117 -1 43 -3 78 -6 78 -9 0
-35 -20 -26 -20 5 0 3 -6 -3 -13 -6 -8 -8 -17 -4 -20 3 -4 1 -7 -5 -7 -6 0
-13 -13 -17 -30 -4 -16 -11 -32 -16 -35 -5 -4 -9 -17 -9 -31 0 -13 -6 -24 -12
-24 -10 0 -10 -3 0 -9 12 -7 12 -11 -1 -22 -7 -7 -12 -21 -10 -30 3 -9 0 -19
-5 -23 -9 -5 -29 32 -36 65 -2 8 -7 23 -11 33 -5 11 -9 35 -9 53 -1 18 -5 33
-9 33 -5 0 -7 16 -4 35 3 19 1 35 -3 35 -4 0 -6 12 -4 27 1 15 -3 34 -9 42 -7
9 -7 12 -1 8 7 -4 10 18 10 71 -1 42 3 80 9 84 6 5 6 8 -2 8 -6 0 -9 8 -7 18
2 9 5 45 7 80 4 64 -5 76 -27 36 -6 -10 -15 -22 -21 -26 -7 -5 -7 -8 0 -8 6 0
4 -4 -3 -9 -7 -4 -14 -14 -15 -22 -2 -8 -7 -21 -12 -29 -5 -8 -10 -19 -10 -24
0 -5 -5 -11 -11 -13 -13 -4 -66 62 -57 71 4 3 1 6 -5 6 -6 0 -9 7 -6 15 4 8 2
21 -3 28 -8 10 -10 32 -3 40 1 1 3 11 5 22 8 58 17 90 26 96 6 3 10 8 8 10 -1
2 0 15 4 29 3 14 6 27 6 29 0 2 3 7 8 10 13 9 33 49 33 65 0 8 7 19 16 24 22
12 26 76 8 111 -8 14 -14 32 -14 39 0 6 -5 12 -11 12 -5 0 -7 5 -4 10 4 6 1
18 -6 26 -6 8 -9 17 -6 21 4 3 2 12 -4 19 -6 8 -9 20 -6 29 4 8 2 17 -3 20 -6
4 -10 11 -10 16 0 6 6 7 13 3 9 -6 9 -5 0 7 -11 14 -17 85 -14 158 1 22 4 23
44 18 23 -4 51 -9 62 -11z m-179 -1271 c-1 -19 2 -35 6 -35 5 0 8 -10 8 -23 0
-13 5 -28 11 -34 9 -9 5 -14 -16 -19 -16 -4 -40 -13 -54 -20 -14 -8 -32 -14
-38 -14 -7 0 -13 -4 -13 -10 0 -5 -3 -9 -8 -7 -12 4 -92 -35 -92 -45 0 -5 -4
-7 -9 -3 -5 3 -16 -1 -24 -9 -8 -8 -17 -12 -21 -9 -3 3 -8 -2 -12 -11 -3 -9
-15 -16 -25 -16 -10 0 -19 -5 -19 -10 0 -6 -8 -14 -17 -17 -10 -4 -30 -19 -45
-35 -15 -15 -32 -28 -38 -28 -6 0 -8 -4 -5 -10 3 -5 2 -10 -4 -10 -6 0 -24
-13 -41 -30 -16 -16 -30 -25 -30 -20 0 13 22 53 35 62 7 5 7 8 0 8 -7 0 -7 3
0 8 6 4 23 26 38 50 47 73 158 192 179 192 6 0 8 3 5 7 -9 8 104 84 115 77 4
-3 8 -1 8 5 0 13 48 36 81 39 25 2 27 -1 25 -33z m-1858 -470 c17 0 32 4 32 8
0 5 6 5 13 0 20 -12 37 -12 37 0 0 8 3 8 8 2 10 -14 32 -17 32 -4 0 6 5 7 13
2 6 -4 23 -8 37 -9 14 -1 28 -2 32 -3 3 0 11 -15 17 -32 11 -31 5 -50 -21 -69
-6 -5 -254 -6 -295 -1 -7 0 -13 8 -13 16 0 8 -6 15 -12 16 -10 0 -10 2 0 6 8
3 10 9 3 16 -6 8 -3 20 10 36 10 13 19 20 19 17 0 -4 8 -3 17 3 10 5 22 6 28
3 5 -3 25 -6 43 -7z m-20 -238 c16 8 36 9 55 3 19 -6 33 -5 45 3 7 6 12 6 12
0 0 -9 49 -10 85 -3 6 2 13 1 18 0 4 -1 11 -3 15 -4 16 -2 42 -35 42 -53 0
-10 -7 -27 -16 -38 -14 -18 -26 -20 -162 -19 -184 1 -203 6 -198 47 4 37 17
57 38 57 11 0 16 4 12 11 -4 8 0 8 15 0 12 -7 28 -8 39 -4z m224 -247 c22 0
41 -35 34 -63 -8 -34 -42 -43 -151 -41 -137 2 -147 3 -140 14 3 6 0 10 -9 10
-27 0 -5 79 23 81 9 0 37 2 63 3 26 2 45 -1 42 -5 -3 -5 5 -5 18 0 13 4 38 7
56 5 22 -2 30 1 26 9 -5 8 -2 8 7 0 7 -7 21 -13 31 -13z m815 -550 c-1 -11 -7
-20 -14 -20 -11 0 -11 4 -1 20 7 11 14 20 15 20 1 0 1 -9 0 -20z"/>
<path d="M6069 5233 c-3 -22 -4 -28 -11 -39 -4 -6 -1 -11 7 -11 8 0 13 3 10 5
-3 3 -1 10 5 16 5 7 5 17 0 26 -7 11 -10 11 -11 3z"/>
<path d="M6050 5156 c0 -8 -5 -16 -12 -18 -7 -3 -5 -7 6 -11 9 -4 15 -3 11 2
-3 5 -1 12 5 16 13 8 13 25 0 25 -5 0 -10 -6 -10 -14z"/>
<path d="M2527 7504 c-9 -19 -22 -34 -28 -34 -6 0 -9 -5 -7 -12 4 -11 -49 -65
-62 -62 -3 1 -16 -9 -30 -22 -14 -13 -19 -24 -12 -24 7 0 10 -4 7 -10 -3 -5 3
-10 14 -10 12 0 21 -4 21 -10 0 -5 6 -10 12 -10 16 0 89 -80 83 -90 -3 -4 2
-11 11 -14 9 -3 12 -11 8 -18 -4 -7 2 -4 13 7 11 11 17 21 12 23 -4 2 0 11 9
21 9 10 24 27 33 37 24 28 60 56 76 58 17 3 18 6 9 34 -4 12 -11 20 -16 17 -5
-3 -11 -1 -15 5 -4 6 -12 7 -18 4 -7 -4 -9 -4 -5 0 3 4 -8 21 -24 37 -17 16
-27 29 -22 29 5 0 1 5 -8 11 -10 5 -18 17 -18 25 0 9 -6 22 -14 29 -11 11 -16
8 -29 -21z"/>
<path d="M4121 7491 c-21 -43 -90 -111 -113 -111 -20 0 -5 -29 21 -40 30 -12
89 -70 93 -91 2 -7 10 -21 17 -30 14 -17 16 -17 32 -1 9 9 15 20 12 25 -2 4
-1 7 4 7 4 0 19 16 32 35 13 19 28 35 33 35 5 0 16 6 24 14 7 8 19 16 26 18 7
3 -16 33 -56 72 -37 37 -66 70 -63 73 6 5 -24 43 -33 43 -3 0 -16 -22 -29 -49z"/>
<path d="M3281 7222 c-1 -7 -5 -11 -10 -8 -5 3 -14 -1 -21 -9 -7 -8 -16 -12
-21 -9 -5 3 -9 0 -9 -7 0 -7 -7 -20 -15 -29 -25 -28 -24 -98 3 -124 50 -48 63
-55 110 -51 34 3 52 10 65 27 10 13 23 30 30 38 13 17 18 100 5 100 -4 0 -8 5
-8 10 0 13 -39 52 -54 54 -6 1 -17 5 -24 10 -7 4 -19 3 -26 -4 -11 -8 -15 -8
-19 2 -4 11 -6 10 -6 0z"/>
<path d="M4060 6887 c0 -10 -5 -17 -11 -17 -5 0 -8 -4 -4 -9 6 -10 -62 -81
-77 -81 -5 0 -3 -7 6 -15 8 -8 18 -15 21 -15 10 0 45 -42 55 -68 8 -19 13 -21
30 -12 11 6 20 20 20 31 0 11 5 17 10 14 6 -3 10 1 10 9 0 9 11 18 25 22 26 6
56 34 37 34 -14 0 -94 75 -87 82 3 3 -4 13 -15 23 -18 16 -20 16 -20 2z"/>
<path d="M2603 6875 c-7 -8 -13 -20 -13 -27 0 -7 -18 -26 -39 -42 -36 -26 -38
-29 -22 -46 9 -9 19 -17 23 -16 3 1 21 -19 39 -44 25 -34 34 -41 37 -27 2 9 8
15 13 12 5 -4 9 -1 9 6 0 15 46 58 72 68 17 6 15 11 -21 43 -22 19 -43 33 -46
29 -4 -3 -5 -1 -4 4 4 12 -19 55 -29 55 -4 -1 -13 -7 -19 -15z"/>
<path d="M2854 6421 c3 -5 -1 -11 -9 -15 -8 -3 -15 -11 -15 -18 -1 -15 -45
-68 -58 -68 -15 0 -31 -22 -25 -36 3 -8 11 -14 19 -14 8 0 19 -9 26 -20 7 -11
18 -20 25 -20 7 0 13 -7 13 -15 0 -9 6 -18 14 -21 8 -3 13 -11 10 -19 -3 -7 2
-15 10 -18 9 -4 16 -2 16 3 0 6 0 12 0 15 0 5 26 36 65 79 12 12 26 21 32 19
6 -2 14 1 17 6 7 10 -60 81 -76 81 -4 0 -8 7 -8 15 0 8 -4 15 -9 15 -5 0 -13
9 -16 20 -3 11 -13 20 -21 20 -8 0 -13 -4 -10 -9z"/>
<path d="M3800 6412 c-8 -10 -16 -24 -17 -30 -4 -15 -31 -42 -66 -65 -24 -16
-26 -20 -13 -32 8 -8 18 -15 23 -15 12 0 83 -83 83 -98 0 -7 5 -10 10 -7 6 3
10 0 10 -7 0 -7 8 3 17 22 10 19 25 42 35 51 10 9 18 22 18 28 0 7 4 10 8 7
11 -7 35 10 38 27 1 8 -11 22 -27 31 -16 9 -29 22 -29 27 0 6 -5 7 -10 4 -6
-4 -10 -3 -8 2 3 13 -36 73 -47 73 -6 0 -17 -8 -25 -18z"/>
</g>
</svg>
